<svg xmlns="http://www.w3.org/2000/svg" xmlns:xlink="http://www.w3.org/1999/xlink" width="100" zoomAndPan="magnify" viewBox="0 0 75 44.999999" height="60" preserveAspectRatio="xMidYMid meet" version="1.0"><defs><g/><clipPath id="96da2da0df"><path d="M 17.398438 2.109375 L 41 2.109375 L 41 32.109375 L 17.398438 32.109375 Z M 17.398438 2.109375 " clip-rule="nonzero"/></clipPath><clipPath id="bfaf8fa2fd"><path d="M 37 2.109375 L 61.648438 2.109375 L 61.648438 29 L 37 29 Z M 37 2.109375 " clip-rule="nonzero"/></clipPath></defs><g clip-path="url(#96da2da0df)"><path fill="#C79089" d="M 37.878906 22.449219 L 30.617188 2.109375 L 30.308594 2.109375 L 25.484375 15.601562 C 21.03125 15.777344 17.410156 19.53125 17.410156 24.113281 C 17.410156 29.09375 20.328125 32.296875 24.34375 32.296875 C 28.773438 32.296875 30.460938 28.394531 30.460938 26.199219 C 30.460938 24.027344 29.320312 22.972656 28.773438 22.625 L 28.707031 22.777344 C 29.148438 23.214844 29.738281 23.960938 29.738281 25.410156 C 29.738281 28.832031 26.910156 30.695312 23.992188 30.695312 C 20.898438 30.695312 17.71875 28.613281 17.71875 24.113281 C 17.71875 19.574219 21.074219 16.21875 25.351562 16.019531 L 23.046875 22.449219 C 22.347656 24.398438 21.578125 24.574219 21.117188 24.574219 L 21.117188 24.816406 L 24.230469 24.816406 L 24.230469 24.574219 C 23.773438 24.574219 22.785156 24.398438 23.488281 22.449219 L 25.789062 15.996094 C 30.351562 16.0625 33.226562 18.652344 34.476562 22.382812 L 34.519531 22.511719 C 35.070312 24.136719 34.410156 24.574219 33.949219 24.574219 L 33.949219 24.816406 L 40.050781 24.816406 L 40.050781 24.574219 C 39.589844 24.574219 38.425781 23.984375 37.878906 22.449219 Z M 25.921875 15.601562 L 28.992188 7.023438 L 33.511719 19.660156 C 31.976562 16.855469 28.621094 15.648438 25.921875 15.601562 Z M 25.921875 15.601562 " fill-opacity="1" fill-rule="nonzero"/></g><g clip-path="url(#bfaf8fa2fd)"><path fill="#C79089" d="M 61.484375 24.554688 C 60.257812 26.242188 58.4375 27.84375 55.363281 27.84375 C 47.226562 27.84375 47.839844 18.367188 42.046875 16.546875 C 50.035156 15.316406 49.660156 2.109375 40.84375 2.109375 L 37.042969 2.109375 L 37.042969 2.527344 L 39.546875 2.527344 C 46.085938 2.527344 45.644531 16.238281 39.109375 16.238281 L 37.042969 16.238281 L 37.042969 16.632812 L 38.40625 16.632812 C 44.089844 19.96875 43.34375 28.261719 54.003906 28.261719 C 58.851562 28.261719 60.761719 26.046875 61.617188 24.554688 Z M 61.484375 24.554688 " fill-opacity="1" fill-rule="nonzero"/></g><g fill="#C79089" fill-opacity="1"><g transform="translate(17.818728, 38.458919)"><g><path d="M 4.625 -0.078125 C 4.644531 -0.078125 4.65625 -0.0625 4.65625 -0.03125 C 4.65625 -0.0078125 4.644531 0 4.625 0 C 4.539062 0 4.410156 -0.00390625 4.234375 -0.015625 C 4.035156 -0.0234375 3.894531 -0.03125 3.8125 -0.03125 C 3.707031 -0.03125 3.578125 -0.0234375 3.421875 -0.015625 C 3.273438 -0.00390625 3.160156 0 3.078125 0 C 3.054688 0 3.046875 -0.0078125 3.046875 -0.03125 C 3.046875 -0.0625 3.054688 -0.078125 3.078125 -0.078125 C 3.191406 -0.078125 3.269531 -0.0859375 3.3125 -0.109375 C 3.363281 -0.128906 3.390625 -0.171875 3.390625 -0.234375 C 3.390625 -0.304688 3.347656 -0.429688 3.265625 -0.609375 L 2.828125 -1.484375 L 1.234375 -1.484375 L 0.984375 -0.921875 C 0.929688 -0.796875 0.90625 -0.675781 0.90625 -0.5625 C 0.90625 -0.40625 0.957031 -0.285156 1.0625 -0.203125 C 1.175781 -0.117188 1.328125 -0.078125 1.515625 -0.078125 C 1.535156 -0.078125 1.546875 -0.0625 1.546875 -0.03125 C 1.546875 -0.0078125 1.535156 0 1.515625 0 C 1.429688 0 1.316406 -0.00390625 1.171875 -0.015625 C 1.003906 -0.0234375 0.863281 -0.03125 0.75 -0.03125 C 0.632812 -0.03125 0.492188 -0.0234375 0.328125 -0.015625 C 0.179688 -0.00390625 0.0625 0 -0.03125 0 C -0.0390625 0 -0.046875 -0.0078125 -0.046875 -0.03125 C -0.046875 -0.0625 -0.0390625 -0.078125 -0.03125 -0.078125 C 0.09375 -0.078125 0.195312 -0.0976562 0.28125 -0.140625 C 0.363281 -0.191406 0.441406 -0.28125 0.515625 -0.40625 C 0.597656 -0.539062 0.695312 -0.734375 0.8125 -0.984375 L 2.21875 -4.0625 C 2.21875 -4.070312 2.234375 -4.078125 2.265625 -4.078125 C 2.304688 -4.078125 2.328125 -4.070312 2.328125 -4.0625 L 3.9375 -0.890625 C 4.09375 -0.578125 4.21875 -0.363281 4.3125 -0.25 C 4.414062 -0.132812 4.519531 -0.078125 4.625 -0.078125 Z M 1.328125 -1.65625 L 2.734375 -1.65625 L 1.984375 -3.125 Z M 1.328125 -1.65625 "/></g></g></g><g fill="#C79089" fill-opacity="1"><g transform="translate(22.433748, 38.458919)"><g><path d="M 1.4375 -3.890625 C 0.925781 -3.890625 0.554688 -3.554688 0.328125 -2.890625 C 0.328125 -2.867188 0.316406 -2.859375 0.296875 -2.859375 C 0.273438 -2.867188 0.265625 -2.878906 0.265625 -2.890625 C 0.273438 -3.066406 0.289062 -3.289062 0.3125 -3.5625 C 0.332031 -3.832031 0.34375 -4.035156 0.34375 -4.171875 C 0.34375 -4.191406 0.351562 -4.203125 0.375 -4.203125 C 0.40625 -4.203125 0.421875 -4.191406 0.421875 -4.171875 C 0.421875 -4.078125 0.539062 -4.03125 0.78125 -4.03125 C 1.15625 -4.019531 1.585938 -4.015625 2.078125 -4.015625 C 2.335938 -4.015625 2.609375 -4.019531 2.890625 -4.03125 L 3.328125 -4.03125 C 3.492188 -4.03125 3.613281 -4.039062 3.6875 -4.0625 C 3.757812 -4.082031 3.804688 -4.125 3.828125 -4.1875 C 3.835938 -4.207031 3.851562 -4.21875 3.875 -4.21875 C 3.894531 -4.21875 3.90625 -4.207031 3.90625 -4.1875 C 3.894531 -4.0625 3.878906 -3.859375 3.859375 -3.578125 C 3.847656 -3.296875 3.84375 -3.066406 3.84375 -2.890625 C 3.84375 -2.878906 3.832031 -2.875 3.8125 -2.875 C 3.789062 -2.875 3.78125 -2.878906 3.78125 -2.890625 C 3.707031 -3.222656 3.582031 -3.472656 3.40625 -3.640625 C 3.238281 -3.804688 3.023438 -3.890625 2.765625 -3.890625 C 2.640625 -3.890625 2.554688 -3.859375 2.515625 -3.796875 C 2.472656 -3.742188 2.453125 -3.644531 2.453125 -3.5 L 2.453125 -0.515625 C 2.453125 -0.390625 2.460938 -0.296875 2.484375 -0.234375 C 2.515625 -0.171875 2.566406 -0.128906 2.640625 -0.109375 C 2.710938 -0.0859375 2.828125 -0.078125 2.984375 -0.078125 C 2.992188 -0.078125 3 -0.0625 3 -0.03125 C 3 -0.0078125 2.992188 0 2.984375 0 C 2.828125 0 2.707031 0 2.625 0 L 2.078125 -0.015625 L 1.5625 0 C 1.46875 0 1.34375 0 1.1875 0 C 1.175781 0 1.171875 -0.0078125 1.171875 -0.03125 C 1.171875 -0.0625 1.175781 -0.078125 1.1875 -0.078125 C 1.34375 -0.078125 1.457031 -0.0859375 1.53125 -0.109375 C 1.601562 -0.128906 1.65625 -0.171875 1.6875 -0.234375 C 1.71875 -0.296875 1.734375 -0.390625 1.734375 -0.515625 L 1.734375 -3.515625 C 1.734375 -3.660156 1.710938 -3.757812 1.671875 -3.8125 C 1.628906 -3.863281 1.550781 -3.890625 1.4375 -3.890625 Z M 1.4375 -3.890625 "/></g></g></g><g fill="#C79089" fill-opacity="1"><g transform="translate(26.578242, 38.458919)"><g><path d="M 2.359375 0.078125 C 1.960938 0.078125 1.609375 -0.015625 1.296875 -0.203125 C 0.984375 -0.390625 0.738281 -0.644531 0.5625 -0.96875 C 0.394531 -1.289062 0.3125 -1.640625 0.3125 -2.015625 C 0.3125 -2.453125 0.421875 -2.828125 0.640625 -3.140625 C 0.867188 -3.460938 1.160156 -3.703125 1.515625 -3.859375 C 1.867188 -4.023438 2.226562 -4.109375 2.59375 -4.109375 C 3 -4.109375 3.351562 -4.007812 3.65625 -3.8125 C 3.96875 -3.625 4.207031 -3.375 4.375 -3.0625 C 4.539062 -2.75 4.625 -2.414062 4.625 -2.0625 C 4.625 -1.664062 4.519531 -1.300781 4.3125 -0.96875 C 4.101562 -0.644531 3.828125 -0.390625 3.484375 -0.203125 C 3.140625 -0.015625 2.765625 0.078125 2.359375 0.078125 Z M 2.578125 -0.078125 C 2.816406 -0.078125 3.03125 -0.144531 3.21875 -0.28125 C 3.414062 -0.425781 3.566406 -0.632812 3.671875 -0.90625 C 3.773438 -1.175781 3.828125 -1.5 3.828125 -1.875 C 3.828125 -2.269531 3.765625 -2.625 3.640625 -2.9375 C 3.523438 -3.25 3.351562 -3.492188 3.125 -3.671875 C 2.894531 -3.847656 2.628906 -3.9375 2.328125 -3.9375 C 1.941406 -3.9375 1.640625 -3.785156 1.421875 -3.484375 C 1.210938 -3.191406 1.109375 -2.78125 1.109375 -2.25 C 1.109375 -1.832031 1.171875 -1.457031 1.296875 -1.125 C 1.421875 -0.800781 1.59375 -0.546875 1.8125 -0.359375 C 2.039062 -0.171875 2.296875 -0.078125 2.578125 -0.078125 Z M 2.578125 -0.078125 "/></g></g></g><g fill="#C79089" fill-opacity="1"><g transform="translate(31.51554, 38.458919)"><g><path d="M 1.125 -3.375 C 1.125 -3.226562 1.160156 -3.09375 1.234375 -2.96875 C 1.316406 -2.84375 1.414062 -2.734375 1.53125 -2.640625 C 1.644531 -2.554688 1.800781 -2.453125 2 -2.328125 C 2.21875 -2.179688 2.390625 -2.054688 2.515625 -1.953125 C 2.648438 -1.859375 2.757812 -1.734375 2.84375 -1.578125 C 2.9375 -1.429688 2.984375 -1.265625 2.984375 -1.078125 C 2.984375 -0.847656 2.921875 -0.644531 2.796875 -0.46875 C 2.679688 -0.300781 2.515625 -0.164062 2.296875 -0.0625 C 2.085938 0.03125 1.851562 0.078125 1.59375 0.078125 C 1.394531 0.078125 1.191406 0.0507812 0.984375 0 C 0.773438 -0.0507812 0.632812 -0.113281 0.5625 -0.1875 C 0.539062 -0.195312 0.523438 -0.207031 0.515625 -0.21875 C 0.503906 -0.238281 0.5 -0.265625 0.5 -0.296875 L 0.484375 -1.328125 C 0.484375 -1.347656 0.492188 -1.359375 0.515625 -1.359375 C 0.535156 -1.367188 0.546875 -1.363281 0.546875 -1.34375 C 0.671875 -1.082031 0.78125 -0.867188 0.875 -0.703125 C 0.976562 -0.535156 1.101562 -0.390625 1.25 -0.265625 C 1.40625 -0.140625 1.578125 -0.078125 1.765625 -0.078125 C 1.929688 -0.078125 2.070312 -0.125 2.1875 -0.21875 C 2.300781 -0.3125 2.359375 -0.472656 2.359375 -0.703125 C 2.359375 -0.890625 2.316406 -1.050781 2.234375 -1.1875 C 2.148438 -1.332031 2.046875 -1.453125 1.921875 -1.546875 C 1.804688 -1.648438 1.640625 -1.769531 1.421875 -1.90625 C 1.210938 -2.039062 1.050781 -2.15625 0.9375 -2.25 C 0.832031 -2.34375 0.738281 -2.457031 0.65625 -2.59375 C 0.570312 -2.726562 0.53125 -2.882812 0.53125 -3.0625 C 0.53125 -3.289062 0.59375 -3.484375 0.71875 -3.640625 C 0.851562 -3.796875 1.023438 -3.910156 1.234375 -3.984375 C 1.441406 -4.066406 1.660156 -4.109375 1.890625 -4.109375 C 2.035156 -4.109375 2.1875 -4.09375 2.34375 -4.0625 C 2.5 -4.03125 2.625 -4 2.71875 -3.96875 C 2.757812 -3.945312 2.785156 -3.925781 2.796875 -3.90625 C 2.804688 -3.882812 2.8125 -3.859375 2.8125 -3.828125 L 2.8125 -2.890625 C 2.8125 -2.867188 2.800781 -2.851562 2.78125 -2.84375 C 2.757812 -2.84375 2.75 -2.847656 2.75 -2.859375 L 2.6875 -2.984375 C 2.582031 -3.253906 2.457031 -3.484375 2.3125 -3.671875 C 2.164062 -3.867188 1.960938 -3.96875 1.703125 -3.96875 C 1.535156 -3.96875 1.394531 -3.914062 1.28125 -3.8125 C 1.175781 -3.71875 1.125 -3.570312 1.125 -3.375 Z M 1.125 -3.375 "/></g></g></g><g fill="#C79089" fill-opacity="1"><g transform="translate(34.835002, 38.458919)"><g/></g></g><g fill="#C79089" fill-opacity="1"><g transform="translate(36.34326, 38.458919)"><g><path d="M 4.671875 -0.078125 C 4.691406 -0.078125 4.703125 -0.0625 4.703125 -0.03125 C 4.703125 -0.0078125 4.691406 0 4.671875 0 L 3.625 0 C 3.5 0 3.289062 -0.101562 3 -0.3125 C 2.675781 -0.0507812 2.265625 0.078125 1.765625 0.078125 C 1.472656 0.078125 1.222656 0.0351562 1.015625 -0.046875 C 0.816406 -0.140625 0.664062 -0.253906 0.5625 -0.390625 C 0.46875 -0.535156 0.421875 -0.6875 0.421875 -0.84375 C 0.421875 -1.050781 0.488281 -1.234375 0.625 -1.390625 C 0.769531 -1.554688 0.988281 -1.75 1.28125 -1.96875 C 1.207031 -2.0625 1.140625 -2.164062 1.078125 -2.28125 C 1.015625 -2.394531 0.96875 -2.503906 0.9375 -2.609375 C 0.90625 -2.722656 0.890625 -2.84375 0.890625 -2.96875 C 0.890625 -3.320312 1 -3.609375 1.21875 -3.828125 C 1.445312 -4.054688 1.75 -4.171875 2.125 -4.171875 C 2.394531 -4.171875 2.609375 -4.113281 2.765625 -4 C 2.921875 -3.882812 3 -3.722656 3 -3.515625 C 3 -3.347656 2.945312 -3.195312 2.84375 -3.0625 C 2.75 -2.925781 2.640625 -2.804688 2.515625 -2.703125 C 2.390625 -2.609375 2.195312 -2.472656 1.9375 -2.296875 C 2.25 -1.835938 2.679688 -1.390625 3.234375 -0.953125 C 3.273438 -1.097656 3.296875 -1.265625 3.296875 -1.453125 C 3.296875 -1.703125 3.253906 -1.882812 3.171875 -2 C 3.085938 -2.113281 2.953125 -2.171875 2.765625 -2.171875 C 2.753906 -2.171875 2.75 -2.179688 2.75 -2.203125 C 2.75 -2.234375 2.753906 -2.25 2.765625 -2.25 L 4.296875 -2.265625 C 4.316406 -2.265625 4.328125 -2.25 4.328125 -2.21875 C 4.328125 -2.195312 4.316406 -2.1875 4.296875 -2.1875 C 4.171875 -2.1875 4.078125 -2.171875 4.015625 -2.140625 C 3.953125 -2.109375 3.90625 -2.0625 3.875 -2 C 3.84375 -1.9375 3.804688 -1.832031 3.765625 -1.6875 C 3.722656 -1.519531 3.675781 -1.363281 3.625 -1.21875 C 3.570312 -1.070312 3.503906 -0.9375 3.421875 -0.8125 C 3.703125 -0.59375 3.945312 -0.421875 4.15625 -0.296875 C 4.375 -0.179688 4.546875 -0.109375 4.671875 -0.078125 Z M 1.5 -3.53125 C 1.5 -3.195312 1.617188 -2.832031 1.859375 -2.4375 C 2.160156 -2.738281 2.3125 -3.054688 2.3125 -3.390625 C 2.3125 -3.578125 2.265625 -3.722656 2.171875 -3.828125 C 2.085938 -3.941406 1.972656 -4 1.828125 -4 C 1.710938 -4 1.628906 -3.957031 1.578125 -3.875 C 1.523438 -3.800781 1.5 -3.6875 1.5 -3.53125 Z M 2.265625 -0.234375 C 2.515625 -0.234375 2.722656 -0.289062 2.890625 -0.40625 C 2.816406 -0.457031 2.722656 -0.53125 2.609375 -0.625 C 2.390625 -0.800781 2.164062 -0.992188 1.9375 -1.203125 C 1.71875 -1.421875 1.523438 -1.640625 1.359375 -1.859375 C 1.171875 -1.648438 1.078125 -1.4375 1.078125 -1.21875 C 1.078125 -1.050781 1.125 -0.890625 1.21875 -0.734375 C 1.3125 -0.585938 1.445312 -0.46875 1.625 -0.375 C 1.8125 -0.28125 2.023438 -0.234375 2.265625 -0.234375 Z M 2.265625 -0.234375 "/></g></g></g><g fill="#C79089" fill-opacity="1"><g transform="translate(40.95828, 38.458919)"><g/></g></g><g fill="#C79089" fill-opacity="1"><g transform="translate(42.466538, 38.458919)"><g><path d="M 4.5625 -0.078125 C 4.570312 -0.078125 4.578125 -0.0625 4.578125 -0.03125 C 4.578125 -0.0078125 4.570312 0 4.5625 0 L 3.421875 0 C 3.328125 0 3.148438 -0.171875 2.890625 -0.515625 C 2.628906 -0.859375 2.316406 -1.335938 1.953125 -1.953125 C 1.921875 -1.941406 1.875 -1.9375 1.8125 -1.9375 C 1.644531 -1.9375 1.523438 -1.941406 1.453125 -1.953125 L 1.453125 -0.515625 C 1.453125 -0.390625 1.460938 -0.296875 1.484375 -0.234375 C 1.503906 -0.171875 1.546875 -0.128906 1.609375 -0.109375 C 1.671875 -0.0859375 1.769531 -0.078125 1.90625 -0.078125 C 1.914062 -0.078125 1.921875 -0.0625 1.921875 -0.03125 C 1.921875 -0.0078125 1.914062 0 1.90625 0 C 1.769531 0 1.660156 0 1.578125 0 L 1.078125 -0.015625 L 0.609375 0 C 0.523438 0 0.410156 0 0.265625 0 C 0.253906 0 0.25 -0.0078125 0.25 -0.03125 C 0.25 -0.0625 0.253906 -0.078125 0.265625 -0.078125 C 0.398438 -0.078125 0.5 -0.0859375 0.5625 -0.109375 C 0.625 -0.128906 0.664062 -0.171875 0.6875 -0.234375 C 0.71875 -0.296875 0.734375 -0.390625 0.734375 -0.515625 L 0.734375 -3.515625 C 0.734375 -3.640625 0.722656 -3.734375 0.703125 -3.796875 C 0.679688 -3.859375 0.632812 -3.898438 0.5625 -3.921875 C 0.5 -3.941406 0.398438 -3.953125 0.265625 -3.953125 C 0.265625 -3.953125 0.265625 -3.960938 0.265625 -3.984375 C 0.265625 -4.015625 0.265625 -4.03125 0.265625 -4.03125 L 0.609375 -4.03125 C 0.804688 -4.019531 0.960938 -4.015625 1.078125 -4.015625 C 1.222656 -4.015625 1.378906 -4.019531 1.546875 -4.03125 C 1.597656 -4.039062 1.664062 -4.046875 1.75 -4.046875 C 1.832031 -4.046875 1.925781 -4.046875 2.03125 -4.046875 C 2.425781 -4.046875 2.726562 -3.972656 2.9375 -3.828125 C 3.15625 -3.691406 3.265625 -3.492188 3.265625 -3.234375 C 3.265625 -2.992188 3.195312 -2.773438 3.0625 -2.578125 C 2.9375 -2.390625 2.769531 -2.238281 2.5625 -2.125 C 2.90625 -1.613281 3.191406 -1.210938 3.421875 -0.921875 C 3.648438 -0.628906 3.851562 -0.414062 4.03125 -0.28125 C 4.21875 -0.144531 4.394531 -0.078125 4.5625 -0.078125 Z M 1.453125 -2.125 C 1.554688 -2.113281 1.679688 -2.109375 1.828125 -2.109375 C 2.078125 -2.109375 2.253906 -2.175781 2.359375 -2.3125 C 2.472656 -2.445312 2.53125 -2.671875 2.53125 -2.984375 C 2.53125 -3.335938 2.476562 -3.582031 2.375 -3.71875 C 2.269531 -3.851562 2.117188 -3.921875 1.921875 -3.921875 C 1.753906 -3.921875 1.632812 -3.882812 1.5625 -3.8125 C 1.488281 -3.75 1.453125 -3.644531 1.453125 -3.5 Z M 1.453125 -2.125 "/></g></g></g><g fill="#C79089" fill-opacity="1"><g transform="translate(46.965537, 38.458919)"><g><path d="M 2.359375 0.078125 C 1.960938 0.078125 1.609375 -0.015625 1.296875 -0.203125 C 0.984375 -0.390625 0.738281 -0.644531 0.5625 -0.96875 C 0.394531 -1.289062 0.3125 -1.640625 0.3125 -2.015625 C 0.3125 -2.453125 0.421875 -2.828125 0.640625 -3.140625 C 0.867188 -3.460938 1.160156 -3.703125 1.515625 -3.859375 C 1.867188 -4.023438 2.226562 -4.109375 2.59375 -4.109375 C 3 -4.109375 3.351562 -4.007812 3.65625 -3.8125 C 3.96875 -3.625 4.207031 -3.375 4.375 -3.0625 C 4.539062 -2.75 4.625 -2.414062 4.625 -2.0625 C 4.625 -1.664062 4.519531 -1.300781 4.3125 -0.96875 C 4.101562 -0.644531 3.828125 -0.390625 3.484375 -0.203125 C 3.140625 -0.015625 2.765625 0.078125 2.359375 0.078125 Z M 2.578125 -0.078125 C 2.816406 -0.078125 3.03125 -0.144531 3.21875 -0.28125 C 3.414062 -0.425781 3.566406 -0.632812 3.671875 -0.90625 C 3.773438 -1.175781 3.828125 -1.5 3.828125 -1.875 C 3.828125 -2.269531 3.765625 -2.625 3.640625 -2.9375 C 3.523438 -3.25 3.351562 -3.492188 3.125 -3.671875 C 2.894531 -3.847656 2.628906 -3.9375 2.328125 -3.9375 C 1.941406 -3.9375 1.640625 -3.785156 1.421875 -3.484375 C 1.210938 -3.191406 1.109375 -2.78125 1.109375 -2.25 C 1.109375 -1.832031 1.171875 -1.457031 1.296875 -1.125 C 1.421875 -0.800781 1.59375 -0.546875 1.8125 -0.359375 C 2.039062 -0.171875 2.296875 -0.078125 2.578125 -0.078125 Z M 2.578125 -0.078125 "/></g></g></g><g fill="#C79089" fill-opacity="1"><g transform="translate(51.902836, 38.458919)"><g><path d="M 1.125 -3.375 C 1.125 -3.226562 1.160156 -3.09375 1.234375 -2.96875 C 1.316406 -2.84375 1.414062 -2.734375 1.53125 -2.640625 C 1.644531 -2.554688 1.800781 -2.453125 2 -2.328125 C 2.21875 -2.179688 2.390625 -2.054688 2.515625 -1.953125 C 2.648438 -1.859375 2.757812 -1.734375 2.84375 -1.578125 C 2.9375 -1.429688 2.984375 -1.265625 2.984375 -1.078125 C 2.984375 -0.847656 2.921875 -0.644531 2.796875 -0.46875 C 2.679688 -0.300781 2.515625 -0.164062 2.296875 -0.0625 C 2.085938 0.03125 1.851562 0.078125 1.59375 0.078125 C 1.394531 0.078125 1.191406 0.0507812 0.984375 0 C 0.773438 -0.0507812 0.632812 -0.113281 0.5625 -0.1875 C 0.539062 -0.195312 0.523438 -0.207031 0.515625 -0.21875 C 0.503906 -0.238281 0.5 -0.265625 0.5 -0.296875 L 0.484375 -1.328125 C 0.484375 -1.347656 0.492188 -1.359375 0.515625 -1.359375 C 0.535156 -1.367188 0.546875 -1.363281 0.546875 -1.34375 C 0.671875 -1.082031 0.78125 -0.867188 0.875 -0.703125 C 0.976562 -0.535156 1.101562 -0.390625 1.25 -0.265625 C 1.40625 -0.140625 1.578125 -0.078125 1.765625 -0.078125 C 1.929688 -0.078125 2.070312 -0.125 2.1875 -0.21875 C 2.300781 -0.3125 2.359375 -0.472656 2.359375 -0.703125 C 2.359375 -0.890625 2.316406 -1.050781 2.234375 -1.1875 C 2.148438 -1.332031 2.046875 -1.453125 1.921875 -1.546875 C 1.804688 -1.648438 1.640625 -1.769531 1.421875 -1.90625 C 1.210938 -2.039062 1.050781 -2.15625 0.9375 -2.25 C 0.832031 -2.34375 0.738281 -2.457031 0.65625 -2.59375 C 0.570312 -2.726562 0.53125 -2.882812 0.53125 -3.0625 C 0.53125 -3.289062 0.59375 -3.484375 0.71875 -3.640625 C 0.851562 -3.796875 1.023438 -3.910156 1.234375 -3.984375 C 1.441406 -4.066406 1.660156 -4.109375 1.890625 -4.109375 C 2.035156 -4.109375 2.1875 -4.09375 2.34375 -4.0625 C 2.5 -4.03125 2.625 -4 2.71875 -3.96875 C 2.757812 -3.945312 2.785156 -3.925781 2.796875 -3.90625 C 2.804688 -3.882812 2.8125 -3.859375 2.8125 -3.828125 L 2.8125 -2.890625 C 2.8125 -2.867188 2.800781 -2.851562 2.78125 -2.84375 C 2.757812 -2.84375 2.75 -2.847656 2.75 -2.859375 L 2.6875 -2.984375 C 2.582031 -3.253906 2.457031 -3.484375 2.3125 -3.671875 C 2.164062 -3.867188 1.960938 -3.96875 1.703125 -3.96875 C 1.535156 -3.96875 1.394531 -3.914062 1.28125 -3.8125 C 1.175781 -3.71875 1.125 -3.570312 1.125 -3.375 Z M 1.125 -3.375 "/></g></g></g><g fill="#C79089" fill-opacity="1"><g transform="translate(55.222298, 38.458919)"><g><path d="M 1.46875 -0.515625 C 1.46875 -0.390625 1.476562 -0.296875 1.5 -0.234375 C 1.519531 -0.171875 1.5625 -0.128906 1.625 -0.109375 C 1.6875 -0.0859375 1.785156 -0.078125 1.921875 -0.078125 C 1.929688 -0.078125 1.9375 -0.0625 1.9375 -0.03125 C 1.9375 -0.0078125 1.929688 0 1.921875 0 C 1.773438 0 1.664062 0 1.59375 0 L 1.09375 -0.015625 L 0.625 0 C 0.53125 0 0.410156 0 0.265625 0 C 0.265625 0 0.265625 -0.0078125 0.265625 -0.03125 C 0.265625 -0.0625 0.265625 -0.078125 0.265625 -0.078125 C 0.410156 -0.078125 0.515625 -0.0859375 0.578125 -0.109375 C 0.640625 -0.128906 0.679688 -0.171875 0.703125 -0.234375 C 0.722656 -0.296875 0.734375 -0.390625 0.734375 -0.515625 L 0.734375 -3.515625 C 0.734375 -3.640625 0.722656 -3.734375 0.703125 -3.796875 C 0.679688 -3.859375 0.640625 -3.898438 0.578125 -3.921875 C 0.515625 -3.941406 0.410156 -3.953125 0.265625 -3.953125 C 0.265625 -3.953125 0.265625 -3.960938 0.265625 -3.984375 C 0.265625 -4.015625 0.265625 -4.03125 0.265625 -4.03125 L 0.625 -4.03125 C 0.820312 -4.019531 0.976562 -4.015625 1.09375 -4.015625 C 1.226562 -4.015625 1.394531 -4.019531 1.59375 -4.03125 L 1.921875 -4.03125 C 1.929688 -4.03125 1.9375 -4.015625 1.9375 -3.984375 C 1.9375 -3.960938 1.929688 -3.953125 1.921875 -3.953125 C 1.785156 -3.953125 1.6875 -3.9375 1.625 -3.90625 C 1.5625 -3.882812 1.519531 -3.84375 1.5 -3.78125 C 1.476562 -3.71875 1.46875 -3.625 1.46875 -3.5 Z M 1.46875 -0.515625 "/></g></g></g></svg>